<svg version="1.1" id="Layer_1" xmlns="http://www.w3.org/2000/svg" xmlns:xlink="http://www.w3.org/1999/xlink" x="0px" y="0px"
	 width="100%" viewBox="0 0 92 92" enable-background="new 0 0 92 92" xml:space="preserve">
<path opacity="1.000000" stroke="none" 
	d="
M60.000000,1.000000 
	C70.969650,1.000000 81.939301,1.000000 92.954475,1.000000 
	C92.954475,31.551649 92.954475,62.103378 92.954475,93.000000 
	C81.981506,93.000000 70.959412,93.000000 59.575584,92.652809 
	C51.675983,84.666557 50.827740,75.662308 53.556290,65.776253 
	C55.872639,57.383698 57.574863,48.808754 60.194088,40.518379 
	C61.412479,36.661930 60.307701,34.624027 57.716698,32.099026 
	C50.067604,24.644754 50.148899,12.759721 57.513054,4.924933 
	C58.554802,3.816610 59.181301,2.317978 60.000000,1.000000 
M81.000000,47.500000 
	C81.000000,36.775627 81.000000,26.051254 81.000000,15.020604 
	C76.195396,15.020604 72.338844,14.699324 68.584686,15.179167 
	C67.088707,15.370378 65.819099,17.332655 64.446434,18.488680 
	C65.810402,19.652157 67.051582,21.577780 68.563751,21.821417 
	C71.772072,22.338329 75.121544,21.979109 78.939545,21.979109 
	C76.686272,29.364798 74.419235,36.050449 72.621788,42.860046 
	C69.851875,53.353779 67.315262,63.912132 64.885971,74.490448 
	C64.329018,76.915710 64.525063,79.749245 68.065926,79.914078 
	C72.161629,80.104744 76.273033,79.958450 81.000000,79.958450 
	C81.000000,69.035400 81.000000,58.767700 81.000000,47.500000 
z"/>
<path opacity="1.000000" stroke="none" 
	d="
M27.000000,1.000000 
	C30.362101,1.000000 33.724201,1.000000 37.454559,1.461563 
	C37.822819,14.816470 37.822819,27.709814 37.822819,40.910072 
	C40.448387,40.910072 42.110130,41.067596 43.732658,40.882114 
	C49.922020,40.174572 50.987587,41.034348 50.993896,47.174885 
	C51.009590,62.449909 50.999649,77.724960 51.000000,93.000000 
	C47.637897,93.000000 44.275799,93.000000 40.413338,92.580284 
	C39.608654,88.886078 39.082165,85.614326 39.041920,82.336594 
	C38.924110,72.741882 39.000008,63.144798 39.000008,53.471249 
	C37.478981,53.254814 36.681973,53.077869 35.878017,53.036751 
	C27.071903,52.586395 26.026308,51.525635 26.005653,42.778603 
	C25.984034,33.623543 25.891401,24.466574 26.044662,15.314037 
	C26.124626,10.538698 26.666666,5.771097 27.000000,1.000000 
z"/>
<path opacity="1.000000" stroke="none" 
	d="
M1.000000,52.000000 
	C1.000000,34.999931 1.000000,17.999863 1.000000,1.000000 
	C4.417929,1.000000 7.726008,1.000000 11.428454,1.461563 
	C11.822821,14.823239 11.822821,27.723352 11.822821,40.895844 
	C14.496599,40.895844 16.171453,41.089855 17.786543,40.861385 
	C23.930725,39.992249 24.986473,40.835773 24.993483,47.121880 
	C25.010538,62.414570 24.999640,77.707291 25.000000,93.000000 
	C21.638712,93.000000 18.277426,93.000000 14.458069,92.531342 
	C14.000000,79.188637 14.000000,66.314590 14.000000,53.606102 
	C9.087860,52.999226 5.043931,52.499611 1.000000,52.000000 
z"/>
</svg>